{
  "accessors": [
    {
      "bufferView": 2,
      "componentType": 5126,
      "count": 65532,
      "max": [
        3.4003100395202637,
        1.7068699598312378,
        1.425279974937439
      ],
      "min": [
        -3.612610101699829,
        -7.369579792022705,
        -0.9711599946022034
      ],
      "type": "VEC3"
    },
    {
      "bufferView": 2,
      "byteOffset": 786384,
      "componentType": 5126,
      "count": 65532,
      "max": [
        1.0,
        1.0,
        1.0
      ],
      "min": [
        -1.0,
        -1.0,
        -1.0
      ],
      "type": "VEC3"
    },
    {
      "bufferView": 1,
      "componentType": 5126,
      "count": 65532,
      "max": [
        1.0,
        1.0
      ],
      "min": [
        0.0,
        0.0
      ],
      "type": "VEC2"
    },
    {
      "bufferView": 0,
      "componentType": 5125,
      "count": 313215,
      "type": "SCALAR"
    },
    {
      "bufferView": 2,
      "byteOffset": 1572768,
      "componentType": 5126,
      "count": 51722,
      "max": [
        3.612610101699829,
        1.6579999923706055,
        1.4192800521850586
      ],
      "min": [
        -3.612610101699829,
        -7.197559833526611,
        -0.7704799771308899
      ],
      "type": "VEC3"
    },
    {
      "bufferView": 2,
      "byteOffset": 2193432,
      "componentType": 5126,
      "count": 51722,
      "max": [
        1.0,
        0.9999995827674866,
        1.0
      ],
      "min": [
        -1.0,
        -0.9999995827674866,
        -1.0
      ],
      "type": "VEC3"
    },
    {
      "bufferView": 1,
      "byteOffset": 524256,
      "componentType": 5126,
      "count": 51722,
      "max": [
        1.0,
        1.0
      ],
      "min": [
        0.0,
        0.0
      ],
      "type": "VEC2"
    },
    {
      "bufferView": 0,
      "byteOffset": 1252860,
      "componentType": 5125,
      "count": 245313,
      "type": "SCALAR"
    },
    {
      "bufferView": 2,
      "byteOffset": 2814096,
      "componentType": 5126,
      "count": 65532,
      "max": [
        3.7520899772644043,
        0.22906999289989471,
        1.3944499492645264
      ],
      "min": [
        -3.5238900184631348,
        -6.971010208129883,
        -0.6611499786376953
      ],
      "type": "VEC3"
    },
    {
      "bufferView": 2,
      "byteOffset": 3600480,
      "componentType": 5126,
      "count": 65532,
      "max": [
        1.0,
        1.0,
        1.0
      ],
      "min": [
        -1.0,
        -1.0,
        -1.0
      ],
      "type": "VEC3"
    },
    {
      "bufferView": 1,
      "byteOffset": 938032,
      "componentType": 5126,
      "count": 65532,
      "max": [
        1.0,
        1.0
      ],
      "min": [
        0.0,
        0.0
      ],
      "type": "VEC2"
    },
    {
      "bufferView": 0,
      "byteOffset": 2234112,
      "componentType": 5125,
      "count": 312909,
      "type": "SCALAR"
    },
    {
      "bufferView": 2,
      "byteOffset": 4386864,
      "componentType": 5126,
      "count": 65532,
      "max": [
        3.6911098957061768,
        0.7664399743080139,
        1.3345199823379517
      ],
      "min": [
        -3.6911098957061768,
        -6.971010208129883,
        -0.6611499786376953
      ],
      "type": "VEC3"
    },
    {
      "bufferView": 2,
      "byteOffset": 5173248,
      "componentType": 5126,
      "count": 65532,
      "max": [
        1.0,
        1.0,
        1.0
      ],
      "min": [
        -1.0,
        -1.0,
        -1.0
      ],
      "type": "VEC3"
    },
    {
      "bufferView": 1,
      "byteOffset": 1462288,
      "componentType": 5126,
      "count": 65532,
      "max": [
        1.0,
        1.0
      ],
      "min": [
        0.0,
        0.0
      ],
      "type": "VEC2"
    },
    {
      "bufferView": 0,
      "byteOffset": 3485748,
      "componentType": 5125,
      "count": 311178,
      "type": "SCALAR"
    },
    {
      "bufferView": 2,
      "byteOffset": 5959632,
      "componentType": 5126,
      "count": 43132,
      "max": [
        0.0,
        0.30555999279022217,
        1.3944499492645264
      ],
      "min": [
        -3.7520899772644043,
        -1.5962599515914917,
        -0.6258900165557861
      ],
      "type": "VEC3"
    },
    {
      "bufferView": 2,
      "byteOffset": 6477216,
      "componentType": 5126,
      "count": 43132,
      "max": [
        1.0,
        1.0,
        1.0
      ],
      "min": [
        -1.0,
        -1.0,
        -1.0
      ],
      "type": "VEC3"
    },
    {
      "bufferView": 1,
      "byteOffset": 1986544,
      "componentType": 5126,
      "count": 43132,
      "max": [
        1.0,
        1.0
      ],
      "min": [
        0.0,
        0.0
      ],
      "type": "VEC2"
    },
    {
      "bufferView": 0,
      "byteOffset": 4730460,
      "componentType": 5125,
      "count": 204615,
      "type": "SCALAR"
    },
    {
      "bufferView": 2,
      "byteOffset": 6994800,
      "componentType": 5126,
      "count": 24691,
      "max": [
        2.995110034942627,
        1.4237699508666992,
        1.2696399688720703
      ],
      "min": [
        -2.995110034942627,
        -6.581049919128418,
        -0.563510000705719
      ],
      "type": "VEC3"
    },
    {
      "bufferView": 2,
      "byteOffset": 7291092,
      "componentType": 5126,
      "count": 24691,
      "max": [
        0.999980628490448,
        1.0,
        1.0
      ],
      "min": [
        -0.999980628490448,
        -1.0,
        -1.0
      ],
      "type": "VEC3"
    },
    {
      "bufferView": 1,
      "byteOffset": 2331600,
      "componentType": 5126,
      "count": 24691,
      "max": [
        1.0,
        1.0
      ],
      "min": [
        0.0,
        0.0
      ],
      "type": "VEC2"
    },
    {
      "bufferView": 0,
      "byteOffset": 5548920,
      "componentType": 5125,
      "count": 117504,
      "type": "SCALAR"
    },
    {
      "bufferView": 2,
      "byteOffset": 7587384,
      "componentType": 5126,
      "count": 2381,
      "max": [
        0.8644999861717224,
        -1.179479956626892,
        1.2385200262069702
      ],
      "min": [
        -0.8644999861717224,
        -6.8996901512146,
        0.7504299879074097
      ],
      "type": "VEC3"
    },
    {
      "bufferView": 2,
      "byteOffset": 7615956,
      "componentType": 5126,
      "count": 2381,
      "max": [
        0.9987881183624268,
        0.9996575117111206,
        0.9967092275619507
      ],
      "min": [
        -0.9987881183624268,
        -0.9932942986488342,
        -0.691756010055542
      ],
      "type": "VEC3"
    },
    {
      "bufferView": 1,
      "byteOffset": 2529128,
      "componentType": 5126,
      "count": 2381,
      "max": [
        1.0,
        1.0
      ],
      "min": [
        0.0,
        0.0
      ],
      "type": "VEC2"
    },
    {
      "bufferView": 0,
      "byteOffset": 6018936,
      "componentType": 5125,
      "count": 11520,
      "type": "SCALAR"
    }
  ],
  "asset": {
    "extras": {
      "author": "Robin Butler (https://sketchfab.com/StarTrekGuy)",
      "license": "CC-BY-4.0 (http://creativecommons.org/licenses/by/4.0/)",
      "source": "https://sketchfab.com/3d-models/lightblade-cruiser-xl4t-mark-1-0b2af30e4df448358b16d91066e81ea9",
      "title": "LightBlade Cruiser XL4T - Mark 1"
    },
    "generator": "Sketchfab-12.68.0",
    "version": "2.0"
  },
  "bufferViews": [
    {
      "buffer": 0,
      "byteLength": 6065016,
      "name": "floatBufferViews",
      "target": 34963
    },
    {
      "buffer": 0,
      "byteLength": 2548176,
      "byteOffset": 6065016,
      "byteStride": 8,
      "name": "floatBufferViews",
      "target": 34962
    },
    {
      "buffer": 0,
      "byteLength": 7644528,
      "byteOffset": 8613192,
      "byteStride": 12,
      "name": "floatBufferViews",
      "target": 34962
    }
  ],
  "buffers": [
    {
      "byteLength": 16257720,
      "uri": "Lightblade.bin"
    }
  ],
  "materials": [
    {
      "doubleSided": true,
      "name": "Material.000",
      "pbrMetallicRoughness": {
        "baseColorFactor": [
          0.000585191483975072,
          0.000585191483975072,
          0.000585191483975072,
          1.0
        ],
        "metallicFactor": 0.2517572729,
        "roughnessFactor": 0.0
      }
    },
    {
      "doubleSided": true,
      "name": "Material.007",
      "pbrMetallicRoughness": {
        "baseColorFactor": [
          0.0,
          0.0,
          0.0,
          1.0
        ],
        "roughnessFactor": 0.0
      }
    },
    {
      "doubleSided": true,
      "emissiveFactor": [
        0.0,
        1.0,
        1.0
      ],
      "name": "Material.008",
      "pbrMetallicRoughness": {
        "baseColorFactor": [
          0.01119271849999999,
          0.7108361125000003,
          0.8000000714999997,
          1.0
        ],
        "metallicFactor": 0.0,
        "roughnessFactor": 0.0
      }
    }
  ],
  "meshes": [
    {
      "name": "Torus_0",
      "primitives": [
        {
          "attributes": {
            "NORMAL": 1,
            "POSITION": 0,
            "TEXCOORD_0": 2
          },
          "indices": 3,
          "material": 0,
          "mode": 4
        }
      ]
    },
    {
      "name": "Torus_0",
      "primitives": [
        {
          "attributes": {
            "NORMAL": 5,
            "POSITION": 4,
            "TEXCOORD_0": 6
          },
          "indices": 7,
          "material": 0,
          "mode": 4
        }
      ]
    },
    {
      "name": "Torus_1",
      "primitives": [
        {
          "attributes": {
            "NORMAL": 9,
            "POSITION": 8,
            "TEXCOORD_0": 10
          },
          "indices": 11,
          "material": 1,
          "mode": 4
        }
      ]
    },
    {
      "name": "Torus_1",
      "primitives": [
        {
          "attributes": {
            "NORMAL": 13,
            "POSITION": 12,
            "TEXCOORD_0": 14
          },
          "indices": 15,
          "material": 1,
          "mode": 4
        }
      ]
    },
    {
      "name": "Torus_1",
      "primitives": [
        {
          "attributes": {
            "NORMAL": 17,
            "POSITION": 16,
            "TEXCOORD_0": 18
          },
          "indices": 19,
          "material": 1,
          "mode": 4
        }
      ]
    },
    {
      "name": "Torus_2",
      "primitives": [
        {
          "attributes": {
            "NORMAL": 21,
            "POSITION": 20,
            "TEXCOORD_0": 22
          },
          "indices": 23,
          "material": 2,
          "mode": 4
        }
      ]
    },
    {
      "name": "Torus_3",
      "primitives": [
        {
          "attributes": {
            "NORMAL": 25,
            "POSITION": 24,
            "TEXCOORD_0": 26
          },
          "indices": 27,
          "material": 1,
          "mode": 4
        }
      ]
    }
  ],
  "nodes": [
    {
      "children": [
        1
      ],
      "matrix": [
        0.7018104791641235,
        -0.1886636316776277,
        0.6869266033172607,
        0.0,
        0.7121418714523315,
        0.16174452006816878,
        -0.6831490993499756,
        0.0,
        0.017778780311346054,
        0.9686303734779358,
        0.24786925315856956,
        0.0,
        -2.7325737476348877,
        -0.11024829745292541,
        -5.520174503326416,
        1.0
      ],
      "name": "Sketchfab_model"
    },
    {
      "children": [
        2
      ],
      "name": "Root"
    },
    {
      "children": [
        3,
        4,
        5,
        6,
        7,
        8,
        9
      ],
      "name": "Torus",
      "rotation": [
        -0.05139004439115524,
        -0.11418009549379349,
        -0.370160311460495,
        0.9204908013343811
      ],
      "scale": [
        0.28696000576019287,
        0.28696000576019287,
        0.28696000576019287
      ],
      "translation": [
        5.3036699295043945,
        6.612880229949951,
        0.7823899984359741
      ]
    },
    {
      "mesh": 0,
      "name": "Torus_0"
    },
    {
      "mesh": 1,
      "name": "Torus_0"
    },
    {
      "mesh": 2,
      "name": "Torus_1"
    },
    {
      "mesh": 3,
      "name": "Torus_1"
    },
    {
      "mesh": 4,
      "name": "Torus_1"
    },
    {
      "mesh": 5,
      "name": "Torus_2"
    },
    {
      "mesh": 6,
      "name": "Torus_3"
    }
  ],
  "scene": 0,
  "scenes": [
    {
      "name": "Sketchfab_Scene",
      "nodes": [
        0
      ]
    }
  ]
}
