{
  "accessors": [
    {
      "bufferView": 2,
      "componentType": 5126,
      "count": 65532,
      "max": [
        10.932575225830078,
        99.7783203125,
        27.59878921508789
      ],
      "min": [
        -10.891029357910156,
        -0.15590593218803406,
        -27.413436889648438
      ],
      "type": "VEC3"
    },
    {
      "bufferView": 2,
      "byteOffset": 786384,
      "componentType": 5126,
      "count": 65532,
      "max": [
        0.999995768070221,
        0.9999977946281433,
        0.9999994039535522
      ],
      "min": [
        -0.9999976754188538,
        -1.0,
        -0.9999827146530151
      ],
      "type": "VEC3"
    },
    {
      "bufferView": 3,
      "componentType": 5126,
      "count": 65532,
      "max": [
        1.0,
        0.9999976754188538,
        1.0,
        1.0
      ],
      "min": [
        -0.9999977946281433,
        -0.9999994039535522,
        -1.0,
        -1.0
      ],
      "type": "VEC4"
    },
    {
      "bufferView": 1,
      "componentType": 5126,
      "count": 65532,
      "max": [
        0.9925311207771301,
        0.9920176863670349
      ],
      "min": [
        0.0023494469933211803,
        0.0023494448978453875
      ],
      "type": "VEC2"
    },
    {
      "bufferView": 0,
      "componentType": 5125,
      "count": 280419,
      "type": "SCALAR"
    },
    {
      "bufferView": 2,
      "byteOffset": 1572768,
      "componentType": 5126,
      "count": 53500,
      "max": [
        11.230735778808594,
        99.29905700683594,
        27.592573165893555
      ],
      "min": [
        -10.308185577392578,
        -0.15590593218803406,
        -27.59878921508789
      ],
      "type": "VEC3"
    },
    {
      "bufferView": 2,
      "byteOffset": 2214768,
      "componentType": 5126,
      "count": 53500,
      "max": [
        0.999976634979248,
        0.9999768733978271,
        1.0
      ],
      "min": [
        -0.9999715089797974,
        -0.9999986886978149,
        -1.0
      ],
      "type": "VEC3"
    },
    {
      "bufferView": 3,
      "byteOffset": 1048512,
      "componentType": 5126,
      "count": 53500,
      "max": [
        1.0,
        0.9998727440834045,
        0.9999871850013733,
        1.0
      ],
      "min": [
        -1.0,
        -0.999999463558197,
        -0.9999871850013733,
        -1.0
      ],
      "type": "VEC4"
    },
    {
      "bufferView": 1,
      "byteOffset": 524256,
      "componentType": 5126,
      "count": 53500,
      "max": [
        0.9925311207771301,
        0.9920176863670349
      ],
      "min": [
        0.0023494469933211803,
        0.002349439775571227
      ],
      "type": "VEC2"
    },
    {
      "bufferView": 0,
      "byteOffset": 1121676,
      "componentType": 5125,
      "count": 191271,
      "type": "SCALAR"
    },
    {
      "bufferView": 2,
      "byteOffset": 2856768,
      "componentType": 5126,
      "count": 153,
      "max": [
        7.186394691467285,
        96.60625457763672,
        3.7776529788970947
      ],
      "min": [
        4.078865051269531,
        87.77816009521484,
        -3.7776529788970947
      ],
      "type": "VEC3"
    },
    {
      "bufferView": 2,
      "byteOffset": 2858604,
      "componentType": 5126,
      "count": 153,
      "max": [
        0.9999945163726807,
        0.5978577136993408,
        0.8859567642211914
      ],
      "min": [
        0.44671908020973206,
        -0.2424607276916504,
        -0.8859567642211914
      ],
      "type": "VEC3"
    },
    {
      "bufferView": 1,
      "byteOffset": 952256,
      "componentType": 5126,
      "count": 153,
      "max": [
        0.7717162370681763,
        0.8930318355560303
      ],
      "min": [
        0.11671595275402069,
        0.3209332227706909
      ],
      "type": "VEC2"
    },
    {
      "bufferView": 0,
      "byteOffset": 1886760,
      "componentType": 5125,
      "count": 540,
      "type": "SCALAR"
    }
  ],
  "asset": {
    "extras": {
      "author": "Faisal Ahmad khan (https://sketchfab.com/faisalahmadkhan67)",
      "license": "CC-BY-4.0 (http://creativecommons.org/licenses/by/4.0/)",
      "source": "https://sketchfab.com/3d-models/futuristic-cybernet-warrior-high-detail-sci-fi-d0795b13d694424c93ca1635eb26aaa3",
      "title": "Futuristic Cybernet Warrior High Detail Sci Fi"
    },
    "generator": "Sketchfab-16.65.0",
    "version": "2.0"
  },
  "bufferViews": [
    {
      "buffer": 0,
      "byteLength": 1888920,
      "name": "floatBufferViews",
      "target": 34963
    },
    {
      "buffer": 0,
      "byteLength": 953480,
      "byteOffset": 1888920,
      "byteStride": 8,
      "name": "floatBufferViews",
      "target": 34962
    },
    {
      "buffer": 0,
      "byteLength": 2860440,
      "byteOffset": 2842400,
      "byteStride": 12,
      "name": "floatBufferViews",
      "target": 34962
    },
    {
      "buffer": 0,
      "byteLength": 1904512,
      "byteOffset": 5702840,
      "byteStride": 16,
      "name": "floatBufferViews",
      "target": 34962
    }
  ],
  "buffers": [
    {
      "byteLength": 7607352,
      "uri": "Cyborg.bin"
    }
  ],
  "extensionsUsed": [
    "KHR_materials_specular",
    "KHR_materials_clearcoat"
  ],
  "images": [
    {
      "uri": "textures/Body_baseColor.jpeg"
    },
    {
      "uri": "textures/Body_metallicRoughness.png"
    },
    {
      "uri": "textures/Body_normal.jpeg"
    }
  ],
  "materials": [
    {
      "doubleSided": true,
      "extensions": {
        "KHR_materials_specular": {
          "specularColorFactor": [
            1.0,
            1.0,
            1.0
          ],
          "specularFactor": 0.42514415282027523
        }
      },
      "name": "Body",
      "normalTexture": {
        "index": 2,
        "scale": 0.21790542599748874
      },
      "pbrMetallicRoughness": {
        "baseColorTexture": {
          "index": 0
        },
        "metallicRoughnessTexture": {
          "index": 1
        },
        "roughnessFactor": 0.2605722226962977
      }
    },
    {
      "doubleSided": true,
      "extensions": {
        "KHR_materials_clearcoat": {
          "clearcoatFactor": 1.0,
          "clearcoatRoughnessFactor": 0.04
        },
        "KHR_materials_specular": {
          "specularColorFactor": [
            1.0,
            1.0,
            1.0
          ],
          "specularFactor": 1.0
        }
      },
      "name": "Glass",
      "pbrMetallicRoughness": {
        "baseColorFactor": [
          0.003467160475331884,
          0.05157066608996808,
          0.08181235140775305,
          1.0
        ],
        "metallicFactor": 0.0,
        "roughnessFactor": 0.0
      }
    }
  ],
  "meshes": [
    {
      "name": "Warrior_Body_0",
      "primitives": [
        {
          "attributes": {
            "NORMAL": 1,
            "POSITION": 0,
            "TANGENT": 2,
            "TEXCOORD_0": 3
          },
          "indices": 4,
          "material": 0,
          "mode": 4
        }
      ]
    },
    {
      "name": "Warrior_Body_0",
      "primitives": [
        {
          "attributes": {
            "NORMAL": 6,
            "POSITION": 5,
            "TANGENT": 7,
            "TEXCOORD_0": 8
          },
          "indices": 9,
          "material": 0,
          "mode": 4
        }
      ]
    },
    {
      "name": "Warrior_Glass_0",
      "primitives": [
        {
          "attributes": {
            "NORMAL": 11,
            "POSITION": 10,
            "TEXCOORD_0": 12
          },
          "indices": 13,
          "material": 1,
          "mode": 4
        }
      ]
    }
  ],
  "nodes": [
    {
      "children": [
        1
      ],
      "matrix": [
        1.826796054840088,
        0.0,
        0.0,
        0.0,
        0.0,
        4.0563020827557314e-16,
        -1.826796054840088,
        0.0,
        0.0,
        1.826796054840088,
        4.0563020827557314e-16,
        0.0,
        0.0,
        0.0,
        0.0,
        1.0
      ],
      "name": "Sketchfab_model"
    },
    {
      "children": [
        2
      ],
      "matrix": [
        0.009999999776482582,
        0.0,
        0.0,
        0.0,
        0.0,
        0.0,
        0.009999999776482582,
        0.0,
        0.0,
        -0.009999999776482582,
        0.0,
        0.0,
        0.0,
        0.0,
        0.0,
        1.0
      ],
      "name": "cd29b270f9794e808ca710620ecaadf5.fbx"
    },
    {
      "children": [
        3
      ],
      "name": "RootNode"
    },
    {
      "children": [
        4,
        5,
        6
      ],
      "name": "Warrior"
    },
    {
      "mesh": 0,
      "name": "Warrior_Body_0"
    },
    {
      "mesh": 1,
      "name": "Warrior_Body_0"
    },
    {
      "mesh": 2,
      "name": "Warrior_Glass_0"
    }
  ],
  "samplers": [
    {
      "magFilter": 9729,
      "minFilter": 9987,
      "wrapS": 10497,
      "wrapT": 10497
    }
  ],
  "scene": 0,
  "scenes": [
    {
      "name": "Sketchfab_Scene",
      "nodes": [
        0
      ]
    }
  ],
  "textures": [
    {
      "sampler": 0,
      "source": 0
    },
    {
      "sampler": 0,
      "source": 1
    },
    {
      "sampler": 0,
      "source": 2
    }
  ]
}
